#N canvas 429 180 486 299 10;
#X obj -79 29 OSCroute /test;
#X obj -82 77 s one;
#X obj -45 77 s two;
#X obj -7 78 s three;
#X obj -79 4 dumpOSC 12006;
#X obj -78 53 OSCroute /0 /1 /2;
#X msg -7 154 samples/imissyou.wav;
#X msg -73 256 \; pd dsp 1;
#X obj -73 231 loadbang;
#X obj -88 155 r one;
#X obj -88 178 OSCroute /sample /pause;
#X obj 271 18 loadbang;
#X obj 248 147 loadbang;
#X msg 272 40 samples/party.wav;
#X msg 255 168 samples/startover.wav;
#X obj 180 167 r three;
#X obj 179 39 r two;
#X obj 175 193 OSCroute /sample /pause;
#X obj 178 62 OSCroute /sample /pause;
#X obj -88 205 pd-unit-stereo;
#X obj -7 130 loadbang;
#X obj 172 226 pd-unit-stereo;
#X obj 180 94 pd-unit-stereo;
#X obj 40 28 OSCroute /vol;
#X obj 41 55 OSCroute /0 /1 /2;
#X obj 41 79 s v1;
#X obj 74 79 s v2;
#X obj 108 79 s v3;
#X obj -48 155 r v1;
#X obj 217 143 r v3;
#X obj 222 39 r v2;
#X obj 69 127 print;
#X connect 0 0 5 0;
#X connect 4 0 0 0;
#X connect 4 0 23 0;
#X connect 5 0 1 0;
#X connect 5 1 2 0;
#X connect 5 2 3 0;
#X connect 6 0 19 3;
#X connect 8 0 7 0;
#X connect 9 0 10 0;
#X connect 10 0 19 0;
#X connect 10 1 19 1;
#X connect 11 0 13 0;
#X connect 12 0 14 0;
#X connect 13 0 22 3;
#X connect 14 0 21 3;
#X connect 15 0 17 0;
#X connect 16 0 18 0;
#X connect 17 0 21 0;
#X connect 17 1 21 1;
#X connect 18 0 22 0;
#X connect 18 1 22 1;
#X connect 20 0 6 0;
#X connect 23 0 24 0;
#X connect 24 0 25 0;
#X connect 24 0 31 0;
#X connect 24 1 26 0;
#X connect 24 2 27 0;
#X connect 28 0 19 2;
#X connect 29 0 21 2;
#X connect 30 0 22 2;
