#N canvas 556 391 326 317 10;
#X obj 59 11 inlet;
#X obj -95 14 inlet;
#X obj -14 285 dac~;
#X obj -88 161 readsf~;
#X msg -90 112 start;
#X msg -47 112 stop;
#X obj -95 72 switch~;
#X msg -38 54 0;
#X msg -93 43 1;
#X msg 27 113 open \$1;
#X obj 27 92 symbol \$1;
#X obj -43 12 inlet;
#X obj -125 20 bng 15 250 50 0 empty empty empty 17 7 0 10 -262144
-1 -1;
#X obj -60 34 bng 15 250 50 0 empty empty empty 17 7 0 10 -262144 -1
-1;
#X obj 1 12 inlet;
#X obj -14 208 *~;
#X obj 1 178 / 1000;
#X floatatom 33 223 5 0 0 0 - - -;
#X connect 0 0 10 0;
#X connect 1 0 8 0;
#X connect 1 0 4 0;
#X connect 1 0 12 0;
#X connect 3 0 15 0;
#X connect 4 0 3 0;
#X connect 5 0 3 0;
#X connect 7 0 6 0;
#X connect 8 0 6 0;
#X connect 9 0 3 0;
#X connect 10 0 9 0;
#X connect 11 0 7 0;
#X connect 11 0 13 0;
#X connect 14 0 16 0;
#X connect 15 0 2 0;
#X connect 15 0 2 1;
#X connect 16 0 15 1;
#X connect 16 0 17 0;
